<?xml version="1.0" encoding="UTF-8"?>
<svg id="Calque_1" xmlns="http://www.w3.org/2000/svg" version="1.1" viewBox="0 0 1080 1080">
  <!-- Generator: Adobe Illustrator 29.6.0, SVG Export Plug-In . SVG Version: 2.1.1 Build 207)  -->
  <defs>
    <style>
      .st0 {
        fill: #231f20;
      }
    </style>
  </defs>
  <path class="st0" d="M540,0C241.77,0,0,241.77,0,540s241.77,540,540,540,540-241.77,540-540S838.23,0,540,0ZM894.16,775.95h-126.52v-246.57c0-68.34-22.17-109.89-72.04-109.89-54.48,0-92.35,42.48-92.35,131.12v225.33h-126.52v-246.57c0-68.34-22.17-109.89-72.04-109.89-54.48,0-92.35,42.48-92.35,131.12v225.33h-126.52v-461.73l.02-.02h126.52v52.64c24.94-36.01,66.48-62.79,122.82-62.79,67.41,0,115.42,31.4,143.14,84.95,28.63-57.25,90.49-84.95,143.13-84.95,109.89,0,172.69,79.41,172.69,204.09v267.8Z"/>
</svg>